<?xml version="1.0" encoding="UTF-8"?>
<svg xmlns="http://www.w3.org/2000/svg" xmlns:xlink="http://www.w3.org/1999/xlink" viewBox="0 0 24 24" width="24px" height="24px">
<g id="surface207878068">
<path style=" stroke:none;fill-rule:nonzero;fill:rgb(100%,100%,100%);fill-opacity:1;" d="M 9.417969 3.746094 L 10.203125 4.914062 C 10.757812 4.714844 11.367188 4.609375 12 4.609375 C 12.632812 4.609375 13.242188 4.714844 13.796875 4.914062 L 14.582031 3.746094 C 14.628906 3.671875 14.707031 3.621094 14.792969 3.601562 C 14.929688 3.570312 15.070312 3.625 15.148438 3.742188 C 15.226562 3.859375 15.222656 4.011719 15.140625 4.125 L 14.425781 5.195312 C 15.640625 5.832031 16.507812 6.9375 16.703125 8.25 C 16.703125 8.253906 16.703125 8.257812 16.703125 8.261719 C 16.703125 8.265625 16.703125 8.269531 16.703125 8.273438 C 16.707031 8.304688 16.707031 8.335938 16.703125 8.367188 L 16.703125 8.828125 C 16.902344 8.710938 17.128906 8.640625 17.375 8.640625 C 18.113281 8.640625 18.71875 9.246094 18.71875 9.984375 L 18.71875 13.375 C 18.503906 13.277344 18.28125 13.195312 18.046875 13.136719 L 18.046875 9.984375 C 18.046875 9.609375 17.75 9.3125 17.375 9.3125 C 17 9.3125 16.703125 9.609375 16.703125 9.984375 L 16.703125 13.023438 C 16.472656 13.042969 16.25 13.078125 16.03125 13.136719 L 16.03125 8.640625 L 7.96875 8.640625 L 7.96875 16.03125 C 7.96875 16.222656 8.113281 16.367188 8.304688 16.367188 L 8.902344 16.367188 C 8.945312 16.359375 8.996094 16.359375 9.039062 16.367188 L 12.933594 16.367188 C 12.976562 16.359375 13.023438 16.359375 13.066406 16.367188 C 13.027344 16.585938 13.007812 16.8125 13.007812 17.039062 C 13.007812 17.609375 13.128906 18.152344 13.34375 18.648438 L 13.34375 19.054688 C 13.34375 19.429688 13.640625 19.726562 14.015625 19.726562 C 14.023438 19.726562 14.03125 19.726562 14.039062 19.726562 C 14.214844 19.921875 14.410156 20.097656 14.617188 20.257812 C 14.4375 20.347656 14.230469 20.398438 14.015625 20.398438 C 13.277344 20.398438 12.671875 19.796875 12.671875 19.054688 L 12.671875 17.039062 L 11.328125 17.039062 L 11.328125 19.054688 C 11.328125 19.796875 10.722656 20.398438 9.984375 20.398438 C 9.246094 20.398438 8.640625 19.796875 8.640625 19.054688 L 8.640625 17.039062 L 8.304688 17.039062 C 7.75 17.039062 7.296875 16.585938 7.296875 16.03125 L 7.296875 15.171875 C 7.097656 15.289062 6.871094 15.359375 6.625 15.359375 C 5.886719 15.359375 5.28125 14.753906 5.28125 14.015625 L 5.28125 9.984375 C 5.28125 9.246094 5.886719 8.640625 6.625 8.640625 C 6.871094 8.640625 7.097656 8.710938 7.296875 8.828125 L 7.296875 8.355469 C 7.292969 8.339844 7.292969 8.320312 7.296875 8.304688 C 7.296875 8.296875 7.296875 8.289062 7.296875 8.28125 C 7.296875 8.273438 7.296875 8.261719 7.296875 8.25 C 7.296875 8.246094 7.296875 8.246094 7.296875 8.242188 C 7.296875 8.238281 7.296875 8.234375 7.296875 8.230469 C 7.5 6.925781 8.367188 5.832031 9.574219 5.195312 L 8.859375 4.125 C 8.792969 4.03125 8.777344 3.914062 8.820312 3.808594 C 8.859375 3.703125 8.949219 3.625 9.058594 3.601562 C 9.074219 3.597656 9.085938 3.59375 9.101562 3.589844 C 9.226562 3.578125 9.351562 3.640625 9.417969 3.746094 Z M 10.246094 5.625 C 10.226562 5.640625 10.207031 5.648438 10.183594 5.65625 C 9.15625 6.121094 8.40625 6.972656 8.113281 7.96875 L 15.886719 7.96875 C 15.589844 6.960938 14.824219 6.097656 13.773438 5.636719 C 13.765625 5.632812 13.753906 5.628906 13.742188 5.625 C 13.222656 5.402344 12.632812 5.28125 12 5.28125 C 11.363281 5.28125 10.769531 5.402344 10.246094 5.625 Z M 10.65625 6.792969 C 10.65625 7.070312 10.429688 7.296875 10.152344 7.296875 C 9.871094 7.296875 9.648438 7.070312 9.648438 6.792969 C 9.648438 6.515625 9.871094 6.289062 10.152344 6.289062 C 10.429688 6.289062 10.65625 6.515625 10.65625 6.792969 Z M 14.351562 6.792969 C 14.351562 7.070312 14.128906 7.296875 13.847656 7.296875 C 13.570312 7.296875 13.34375 7.070312 13.34375 6.792969 C 13.34375 6.515625 13.570312 6.289062 13.847656 6.289062 C 14.128906 6.289062 14.351562 6.515625 14.351562 6.792969 Z M 5.953125 9.984375 L 5.953125 14.015625 C 5.953125 14.390625 6.25 14.6875 6.625 14.6875 C 7 14.6875 7.296875 14.390625 7.296875 14.015625 L 7.296875 9.984375 C 7.296875 9.609375 7 9.3125 6.625 9.3125 C 6.25 9.3125 5.953125 9.609375 5.953125 9.984375 Z M 9.3125 19.054688 C 9.3125 19.429688 9.609375 19.726562 9.984375 19.726562 C 10.359375 19.726562 10.65625 19.429688 10.65625 19.054688 L 10.65625 17.039062 L 9.3125 17.039062 Z M 9.3125 19.054688 "/>
<path style=" stroke:none;fill-rule:nonzero;fill:rgb(80.000001%,80.000001%,80.000001%);fill-opacity:1;" d="M 19.023438 17.039062 C 19.023438 17.242188 18.886719 17.375 18.6875 17.375 L 17.375 17.375 L 17.375 18.6875 C 17.375 18.886719 17.242188 19.023438 17.039062 19.023438 C 16.839844 19.023438 16.703125 18.886719 16.703125 18.6875 L 16.703125 17.375 L 15.394531 17.375 C 15.191406 17.375 15.058594 17.242188 15.058594 17.039062 C 15.058594 16.839844 15.191406 16.703125 15.394531 16.703125 L 16.703125 16.703125 L 16.703125 15.394531 C 16.703125 15.191406 16.839844 15.058594 17.039062 15.058594 C 17.242188 15.058594 17.375 15.191406 17.375 15.394531 L 17.375 16.703125 L 18.6875 16.703125 C 18.886719 16.703125 19.023438 16.839844 19.023438 17.039062 Z M 20.398438 17.039062 C 20.398438 18.886719 18.886719 20.398438 17.039062 20.398438 C 15.191406 20.398438 13.679688 18.886719 13.679688 17.039062 C 13.679688 15.191406 15.191406 13.679688 17.039062 13.679688 C 18.886719 13.679688 20.398438 15.191406 20.398438 17.039062 Z M 19.726562 17.039062 C 19.726562 15.5625 18.519531 14.351562 17.039062 14.351562 C 15.5625 14.351562 14.351562 15.5625 14.351562 17.039062 C 14.351562 18.519531 15.5625 19.726562 17.039062 19.726562 C 18.519531 19.726562 19.726562 18.519531 19.726562 17.039062 Z M 19.726562 17.039062 "/>
</g>
</svg>
